<?xml version="1.0" encoding="UTF-8" standalone="no"?>
<svg
   xmlns:dc="http://purl.org/dc/elements/1.1/"
   xmlns:cc="http://creativecommons.org/ns#"
   xmlns:rdf="http://www.w3.org/1999/02/22-rdf-syntax-ns#"
   xmlns:svg="http://www.w3.org/2000/svg"
   xmlns="http://www.w3.org/2000/svg"
   xmlns:sodipodi="http://sodipodi.sourceforge.net/DTD/sodipodi-0.dtd"
   xmlns:inkscape="http://www.inkscape.org/namespaces/inkscape"
   version="1.1"
   id="Layer_1"
   x="0px"
   y="0px"
   width="100"
   height="100"
   viewBox="0 0 100 100"
   enable-background="new 0 0 95.421 90.213"
   xml:space="preserve"
   inkscape:version="0.48.2 r9819"
   sodipodi:docname="camera_icon.svg"
   inkscape:export-filename="/Users/christopher/Downloads/icon_4458/camera_icon.png"
   inkscape:export-xdpi="180"
   inkscape:export-ydpi="180"><metadata
   id="metadata19"><rdf:RDF><cc:Work
       rdf:about=""><dc:format>image/svg+xml</dc:format><dc:type
         rdf:resource="http://purl.org/dc/dcmitype/StillImage" /><dc:title></dc:title></cc:Work></rdf:RDF></metadata><defs
   id="defs17">
	
	
	
</defs><sodipodi:namedview
   pagecolor="#ffffff"
   bordercolor="#666666"
   borderopacity="1"
   objecttolerance="10"
   gridtolerance="10"
   guidetolerance="10"
   inkscape:pageopacity="0"
   inkscape:pageshadow="2"
   inkscape:window-width="1360"
   inkscape:window-height="978"
   id="namedview15"
   showgrid="false"
   inkscape:zoom="2.616031"
   inkscape:cx="58.532801"
   inkscape:cy="45.106499"
   inkscape:window-x="402"
   inkscape:window-y="82"
   inkscape:window-maximized="0"
   inkscape:current-layer="Layer_1" />
<g
   id="g3866"
   transform="matrix(1.1044842,0,0,1.1044842,-2.6954933,-10.417498)"><path
     style="fill:#d43e37;fill-opacity:1"
     d="m 47.9765,66.641003 c 6.032,-0.01 10.919,-4.895 10.928,-10.928 -0.005,-4.064 -2.217,-7.602 -5.508,-9.485 -1.597,-0.915 -3.448,-1.44 -5.42,-1.445 -1.965,0.004 -3.806,0.522 -5.396,1.426 -3.308,1.876 -5.536,5.427 -5.543,9.503 0.013,6.033 4.898,10.922 10.939,10.929 z m 23.278,-21.956 c 0.238,0.499 0.463,1.01 0.665,1.527 1.166,2.939 1.81,6.146 1.81,9.501 -0.005,14.23 -11.528,25.75 -25.754,25.753 -14.232,-0.003 -25.758,-11.528 -25.762,-25.753 0,-3.351 0.642,-6.556 1.807,-9.492 0.202,-0.509 0.419,-1.012 0.65,-1.501 0.005,-0.013 0.013,-0.021 0.02,-0.033 h -22.25 v 51.222 c 0,2.107 1.707,3.811 3.812,3.811 h 82.918 c 2.106,0 3.81,-1.705 3.81,-3.811 v -51.222 l -21.726,-0.002 0,0 z"
     id="path11"
     inkscape:connector-curvature="0" /><path
     style="fill:#d43e37;fill-opacity:1"
     d="M 89.171499,9.6840028 H 6.2524991 c -2.105,0 -3.812,1.7040002 -3.812,3.8080002 v 24.087 H 29.717499 c 4.662,-4.683 11.117,-7.586 18.257,-7.591 7.133,0.004 13.59,2.908 18.25,7.591 h 26.756 v -24.087 c 0.002,-2.105 -1.704,-3.8080002 -3.809,-3.8080002 z m -4.307,15.6480002 c 0,2.151 -1.74,3.888 -3.887,3.888 h -4.598 c -2.146,0 -3.889,-1.738 -3.889,-3.888 v -4.593 c 0,-2.152 1.742,-3.89 3.889,-3.89 h 4.598 c 2.148,0 3.887,1.738 3.887,3.89 v 4.593 z"
     id="path13"
     inkscape:connector-curvature="0" /></g>
</svg>